<?xml version="1.0" encoding="UTF-8" standalone="no"?>
<svg
   xmlns:dc="http://purl.org/dc/elements/1.1/"
   xmlns:cc="http://creativecommons.org/ns#"
   xmlns:rdf="http://www.w3.org/1999/02/22-rdf-syntax-ns#"
   xmlns:svg="http://www.w3.org/2000/svg"
   xmlns="http://www.w3.org/2000/svg"
   xmlns:sodipodi="http://sodipodi.sourceforge.net/DTD/sodipodi-0.dtd"
   xmlns:inkscape="http://www.inkscape.org/namespaces/inkscape"
   version="1.0"
   width="1500px"
   height="500px"
   viewBox="0 0 5000 5000"
   preserveAspectRatio="xMidYMid meet"
   id="svg3706"
   sodipodi:docname="Tmanagerfull.svg"
   inkscape:version="0.92.1 r15371">
  <metadata
     id="metadata3712">
    <rdf:RDF>
      <cc:Work
         rdf:about="">
        <dc:format>image/svg+xml</dc:format>
        <dc:type
           rdf:resource="http://purl.org/dc/dcmitype/StillImage" />
      </cc:Work>
    </rdf:RDF>
  </metadata>
  <defs
     id="defs3710" />
  <sodipodi:namedview
     pagecolor="#ffffff"
     bordercolor="#666666"
     borderopacity="1"
     objecttolerance="10"
     gridtolerance="10"
     guidetolerance="10"
     inkscape:pageopacity="0"
     inkscape:pageshadow="2"
     inkscape:window-width="1920"
     inkscape:window-height="1017"
     id="namedview3708"
     showgrid="false"
     inkscape:zoom="0.42499999"
     inkscape:cx="824.98614"
     inkscape:cy="244.23075"
     inkscape:window-x="-8"
     inkscape:window-y="-8"
     inkscape:window-maximized="1"
     inkscape:current-layer="svg3706" />
  <g
     id="layer1"
     transform="matrix(1.1974523,0,0,1.2453243,-5868.591,99.657992)"
     style="fill:#cb2229;stroke:none">
    <path
       d="m 2420,3483 c -37,-13 -88,-59 -273,-241 -136,-135 -224,-229 -218,-235 5,-5 47,-4 102,5 118,16 694,16 893,-1 77,-6 143,-8 148,-3 4,4 -94,109 -220,234 -196,194 -234,227 -276,242 -60,20 -97,19 -156,-1 z"
       id="path3680"
       inkscape:connector-curvature="0" />
    <path
       d="m 2145,889 c -38,-4 -121,-13 -183,-20 -62,-6 -115,-16 -118,-21 -10,-15 514,-532 560,-553 60,-27 108,-30 168,-9 48,16 80,45 322,286 162,162 266,272 260,278 -12,12 -215,28 -509,40 -273,11 -399,11 -500,-1 z"
       id="path3682"
       inkscape:connector-curvature="0" />
  </g>
  <g
     id="g3746"
     transform="matrix(2.295672,0,0,2.3874488,-4422.2466,-1971.2882)">
    <g
       id="g3756"
       transform="matrix(1.0237599,0,0,1.0237599,-2640.5095,-16.695163)">
      <path
         style="fill:#492524;stroke:none"
         inkscape:connector-curvature="0"
         id="path3685"
         d="m 7382.3529,2332.7647 c -42,-13 -110,-51 -110,-62 0,-5 11,-32 25,-60 l 26,-50 33,20 c 77,48 200,32 231,-29 23,-45 18,-54 -19,-30 -80,49 -188,34 -261,-37 -49,-47 -67,-94 -67,-168 0,-101 48,-182 136,-227 50,-26 133,-21 174,9 l 28,21 10,-22 c 8,-18 17,-21 74,-21 h 65 l 3,228 c 1,144 -2,244 -9,270 -14,55 -98,138 -155,155 -45,13 -144,15 -184,3 z m 171,-340 c 23,-24 29,-38 29,-75 0,-79 -32,-116 -100,-116 -39,0 -87,42 -92,82 -17,111 90,182 163,109 z" />
      <path
         style="fill:#492524;stroke:none"
         inkscape:connector-curvature="0"
         id="path3687"
         d="m 5778.3529,2157.7647 c -115,-42 -157,-171 -82,-250 37,-40 88,-56 179,-56 47,0 67,-4 67,-12 -1,-43 -62,-58 -130,-33 -25,9 -53,19 -62,22 -11,3 -25,-8 -44,-37 l -28,-42 27,-24 c 62,-53 216,-71 292,-34 23,11 52,35 66,52 23,32 24,37 24,223 v 190 l -63,3 c -57,3 -64,1 -69,-17 -5,-20 -5,-20 -32,-1 -36,27 -98,33 -145,16 z m 142,-132 c 12,-8 22,-26 22,-40 0,-22 -4,-24 -49,-24 -27,0 -56,3 -65,6 -19,7 -22,60 -3,67 26,11 73,6 95,-9 z" />
      <path
         style="fill:#492524;stroke:none"
         inkscape:connector-curvature="0"
         id="path3689"
         d="m 6853.3529,2161.7647 c -40,-9 -77,-36 -105,-74 -32,-42 -30,-135 4,-172 41,-44 96,-64 183,-64 82,0 91,-6 56,-41 -17,-17 -30,-20 -64,-17 -23,3 -57,13 -75,22 -18,9 -37,16 -41,16 -14,0 -69,-81 -63,-91 3,-5 29,-21 57,-36 38,-19 72,-27 128,-31 93,-5 152,17 195,74 l 29,37 v 186 186 l -63,3 c -57,3 -64,1 -69,-18 -5,-20 -6,-20 -37,-1 -39,24 -91,32 -135,21 z m 134,-145 c 40,-39 33,-55 -26,-55 -59,0 -89,13 -89,40 0,43 77,54 115,15 z" />
      <path
         style="fill:#492524;stroke:none"
         inkscape:connector-curvature="0"
         id="path3691"
         d="m 8004.3529,2160.7647 c -142,-28 -223,-172 -181,-324 7,-26 29,-58 63,-91 56,-57 98,-74 182,-74 70,0 148,41 189,99 27,38 30,50 30,119 v 77 l -162,3 c -90,1 -163,6 -163,11 0,4 11,18 24,30 35,33 100,38 151,12 l 40,-21 39,39 40,40 -20,22 c -42,48 -150,75 -232,58 z m 138,-307 c 0,-18 -27,-43 -55,-51 -39,-11 -93,7 -113,37 l -14,22 h 91 c 50,0 91,-4 91,-8 z" />
      <path
         style="fill:#492524;stroke:none"
         inkscape:connector-curvature="0"
         id="path3693"
         d="m 4469.3529,2155.7647 c -4,-4 -7,-114 -7,-245 v -238 l -82,-3 -83,-3 v -60 -60 h 245 245 v 60 60 l -82,3 -83,3 -2,242 -3,242 -70,3 c -39,1 -74,0 -78,-4 z" />
      <path
         style="fill:#492524;stroke:none"
         inkscape:connector-curvature="0"
         id="path3695"
         d="m 4877.3529,2149.7647 c -3,-7 -4,-146 -3,-308 l 3,-295 88,-3 c 49,-2 94,2 101,7 7,6 43,77 81,159 l 69,149 69,-146 c 38,-80 73,-152 79,-159 8,-9 37,-12 102,-10 l 91,3 v 305 305 h -70 -70 l -5,-168 -5,-168 -72,146 -73,145 h -45 -45 l -73,-145 -72,-146 -5,168 -5,168 -68,3 c -48,2 -69,-1 -72,-10 z" />
      <path
         style="fill:#492524;stroke:none"
         inkscape:connector-curvature="0"
         id="path3697"
         d="m 6197.3529,2149.7647 c -3,-8 -4,-115 -3,-238 l 3,-225 65,-3 c 49,-2 67,1 76,12 10,14 15,13 50,-4 73,-38 155,-21 211,43 42,48 48,82 48,267 v 155 h -70 -70 l -5,-155 c -3,-93 -10,-164 -17,-176 -23,-41 -69,-45 -110,-10 l -28,24 -5,159 -5,158 -68,3 c -49,2 -69,-1 -72,-10 z" />
      <path
         style="fill:#492524;stroke:none"
         inkscape:connector-curvature="0"
         id="path3699"
         d="m 8377.3529,2149.7647 c -3,-8 -4,-115 -3,-238 l 3,-225 68,-3 c 61,-3 69,-1 74,16 5,19 6,19 49,-5 24,-13 54,-23 66,-21 21,3 23,9 26,66 2,44 -1,63 -10,66 -7,2 -31,8 -53,12 -59,13 -69,41 -75,204 l -5,135 -68,3 c -49,2 -69,-1 -72,-10 z" />
    </g>
  </g>
  <g
     id="g3726"
     transform="matrix(1.1974523,0,0,1.2453243,-5868.591,99.657992)">
    <path
       d="M 1373,2468 C 900,1993 890,1982 890,1885 c 0,-96 13,-112 433,-533 216,-217 405,-403 420,-414 26,-18 29,-19 52,-4 31,21 71,89 84,146 6,25 15,110 21,190 11,159 26,225 73,313 44,84 110,139 211,177 54,21 95,44 116,65 30,31 31,34 17,61 -9,16 -34,47 -56,69 -52,50 -52,74 -1,121 46,43 44,49 -28,94 l -44,27 37,6 c 78,13 98,68 43,124 l -32,33 62,64 c 56,58 62,68 62,106 0,23 -7,57 -16,76 -26,54 -124,137 -220,186 -74,38 -279,118 -303,118 -3,0 -205,-199 -448,-442 z"
       id="path3701"
       inkscape:connector-curvature="0"
       style="fill:#492524;stroke:none" />
    <path
       d="m 3054,2876 c -176,-64 -288,-128 -352,-200 -51,-58 -65,-93 -60,-148 5,-43 12,-56 57,-102 28,-28 51,-58 51,-65 0,-7 -11,-26 -25,-43 -44,-52 -27,-96 45,-116 l 35,-9 -34,-19 c -18,-10 -43,-26 -55,-36 l -21,-16 43,-41 c 52,-50 54,-76 6,-122 -19,-18 -45,-49 -57,-68 l -21,-34 41,-36 c 23,-21 73,-48 116,-64 101,-37 165,-95 212,-190 44,-89 62,-176 70,-331 9,-160 25,-216 80,-274 l 43,-46 98,91 c 214,198 742,738 764,782 29,57 29,134 0,192 -30,60 -896,929 -925,929 -11,-1 -61,-16 -111,-34 z"
       id="path3703"
       inkscape:connector-curvature="0"
       style="fill:#492524;stroke:none" />
  </g>
</svg>
