<!DOCTYPE svg PUBLIC "-//W3C//DTD SVG 20010904//EN" "http://www.w3.org/TR/2001/REC-SVG-20010904/DTD/svg10.dtd">
<svg version="1.0" xmlns="http://www.w3.org/2000/svg" width="400px" height="400px" viewBox="0 0 4000 4000" preserveAspectRatio="xMidYMid meet">
<g id="layer1" fill="#ffffff" stroke="none">
 <path d="M1920 3593 c-36 -13 -87 -58 -267 -236 -123 -122 -223 -227 -223 -235 0 -12 10 -14 53 -8 196 23 400 29 673 17 157 -6 314 -15 349 -18 53 -5 65 -3 65 9 0 7 -100 113 -222 235 -192 190 -230 222 -272 237 -60 20 -97 19 -156 -1z"/>
 <path d="M1645 1000 c-38 -5 -121 -14 -182 -21 -92 -9 -113 -14 -113 -27 0 -26 498 -519 550 -545 61 -30 140 -30 201 1 51 25 549 519 549 545 0 11 -17 16 -62 21 -237 24 -831 40 -943 26z"/>
 </g>
<g id="layer2" fill="#ffffff" stroke="none">
 <path d="M873 2578 c-473 -475 -483 -486 -483 -583 0 -96 13 -112 433 -533 216 -217 405 -403 420 -414 26 -18 29 -19 52 -4 31 21 71 89 84 146 6 25 15 110 21 190 11 159 26 225 73 313 44 84 110 139 211 177 54 21 95 44 116 65 30 31 31 34 17 61 -9 16 -34 47 -56 69 -51 49 -52 73 -4 118 44 42 40 56 -22 95 l-47 29 37 6 c78 13 98 68 43 124 l-32 33 62 64 c56 58 62 68 62 106 0 23 -7 57 -16 76 -26 54 -124 137 -220 186 -74 38 -279 118 -303 118 -3 0 -205 -199 -448 -442z"/>
 <path d="M2554 2986 c-176 -64 -288 -128 -352 -200 -51 -58 -65 -93 -60 -148 5 -43 12 -56 57 -102 28 -28 51 -58 51 -65 0 -7 -11 -26 -25 -43 -44 -52 -25 -100 43 -114 38 -8 34 -18 -19 -44 -49 -26 -50 -50 -4 -87 46 -37 46 -68 -1 -114 -19 -18 -45 -49 -57 -68 l-21 -34 41 -36 c23 -21 73 -48 116 -64 101 -37 165 -95 212 -190 44 -89 62 -176 70 -331 9 -160 25 -216 80 -274 l43 -46 98 91 c209 194 742 738 763 780 28 56 28 139 0 196 -29 58 -896 927 -924 927 -11 -1 -61 -16 -111 -34z"/>
 </g>

</svg>